<mxfile host="app.diagrams.net" modified="2023-10-28T11:35:03.156Z" agent="Mozilla/5.0 (Windows NT 10.0; Win64; x64) AppleWebKit/537.36 (KHTML, like Gecko) Chrome/118.0.0.0 Safari/537.36 Edg/118.0.2088.69" etag="Ok9ntblldF0V4pAG3hAr" version="22.0.8" type="device">
  <diagram name="Page-1" id="Bk38Pk9yFGezC0iPorod">
    <mxGraphModel dx="1002" dy="577" grid="1" gridSize="10" guides="1" tooltips="1" connect="1" arrows="1" fold="1" page="1" pageScale="1" pageWidth="850" pageHeight="1100" math="0" shadow="0">
      <root>
        <mxCell id="0" />
        <mxCell id="1" parent="0" />
        <mxCell id="CyuO8R-Sqe39hPokqnZD-3" value="HomeController" style="rounded=0;whiteSpace=wrap;html=1;align=center;fillColor=#f5f5f5;fontColor=#333333;strokeColor=#666666;horizontal=1;verticalAlign=top;" vertex="1" parent="1">
          <mxGeometry x="40" y="40" width="380" height="240" as="geometry" />
        </mxCell>
        <mxCell id="CyuO8R-Sqe39hPokqnZD-4" value="WebPage" style="rounded=0;whiteSpace=wrap;html=1;align=center;fillColor=#f5f5f5;fontColor=#333333;strokeColor=#666666;verticalAlign=top;" vertex="1" parent="1">
          <mxGeometry x="480" y="40" width="240" height="180" as="geometry" />
        </mxCell>
        <mxCell id="CyuO8R-Sqe39hPokqnZD-72" style="edgeStyle=orthogonalEdgeStyle;rounded=0;orthogonalLoop=1;jettySize=auto;html=1;exitX=0.25;exitY=1;exitDx=0;exitDy=0;entryX=0.25;entryY=0;entryDx=0;entryDy=0;strokeWidth=3;startArrow=classic;startFill=1;" edge="1" parent="1" source="CyuO8R-Sqe39hPokqnZD-22" target="CyuO8R-Sqe39hPokqnZD-5">
          <mxGeometry relative="1" as="geometry">
            <Array as="points">
              <mxPoint x="285" y="330" />
              <mxPoint x="220" y="330" />
            </Array>
          </mxGeometry>
        </mxCell>
        <mxCell id="CyuO8R-Sqe39hPokqnZD-22" value="HC_WIFI_INTERFACE" style="rounded=0;whiteSpace=wrap;html=1;align=center;verticalAlign=middle;" vertex="1" parent="1">
          <mxGeometry x="240" y="250" width="180" height="30" as="geometry" />
        </mxCell>
        <mxCell id="CyuO8R-Sqe39hPokqnZD-5" value="HC-Devices" style="rounded=0;whiteSpace=wrap;html=1;align=center;fillColor=#f5f5f5;fontColor=#333333;strokeColor=#666666;verticalAlign=top;" vertex="1" parent="1">
          <mxGeometry x="30" y="360" width="760" height="170" as="geometry" />
        </mxCell>
        <mxCell id="CyuO8R-Sqe39hPokqnZD-6" value="PC-Network-Card" style="rounded=0;whiteSpace=wrap;html=1;align=center;verticalAlign=middle;" vertex="1" parent="1">
          <mxGeometry x="40" y="390" width="140" height="60" as="geometry" />
        </mxCell>
        <mxCell id="CyuO8R-Sqe39hPokqnZD-7" value="Night Lamp" style="rounded=0;whiteSpace=wrap;html=1;align=center;verticalAlign=middle;" vertex="1" parent="1">
          <mxGeometry x="190" y="390" width="140" height="60" as="geometry" />
        </mxCell>
        <mxCell id="CyuO8R-Sqe39hPokqnZD-10" value="3D-Printer" style="rounded=0;whiteSpace=wrap;html=1;align=center;verticalAlign=middle;" vertex="1" parent="1">
          <mxGeometry x="640" y="390" width="140" height="60" as="geometry" />
        </mxCell>
        <mxCell id="CyuO8R-Sqe39hPokqnZD-12" value="B-CPU" style="rounded=0;whiteSpace=wrap;html=1;align=center;verticalAlign=middle;" vertex="1" parent="1">
          <mxGeometry x="490" y="390" width="140" height="60" as="geometry" />
        </mxCell>
        <mxCell id="CyuO8R-Sqe39hPokqnZD-13" value="Globe Lamp" style="rounded=0;whiteSpace=wrap;html=1;align=center;verticalAlign=middle;" vertex="1" parent="1">
          <mxGeometry x="340" y="390" width="140" height="60" as="geometry" />
        </mxCell>
        <mxCell id="CyuO8R-Sqe39hPokqnZD-53" style="edgeStyle=orthogonalEdgeStyle;rounded=0;orthogonalLoop=1;jettySize=auto;html=1;exitX=0.5;exitY=1;exitDx=0;exitDy=0;entryX=0.5;entryY=0;entryDx=0;entryDy=0;startArrow=classic;startFill=1;" edge="1" parent="1" source="CyuO8R-Sqe39hPokqnZD-24" target="CyuO8R-Sqe39hPokqnZD-22">
          <mxGeometry relative="1" as="geometry" />
        </mxCell>
        <mxCell id="CyuO8R-Sqe39hPokqnZD-60" style="edgeStyle=orthogonalEdgeStyle;rounded=0;orthogonalLoop=1;jettySize=auto;html=1;exitX=0.25;exitY=0;exitDx=0;exitDy=0;entryX=0.75;entryY=1;entryDx=0;entryDy=0;startArrow=classic;startFill=1;" edge="1" parent="1" source="CyuO8R-Sqe39hPokqnZD-24" target="CyuO8R-Sqe39hPokqnZD-48">
          <mxGeometry relative="1" as="geometry">
            <Array as="points">
              <mxPoint x="290" y="180" />
              <mxPoint x="260" y="180" />
            </Array>
          </mxGeometry>
        </mxCell>
        <mxCell id="CyuO8R-Sqe39hPokqnZD-24" value="HC_SERVER_APPLICATION" style="rounded=0;whiteSpace=wrap;html=1;align=center;verticalAlign=middle;" vertex="1" parent="1">
          <mxGeometry x="250" y="190" width="160" height="30" as="geometry" />
        </mxCell>
        <mxCell id="CyuO8R-Sqe39hPokqnZD-26" value="GET-REQUEST" style="rounded=0;whiteSpace=wrap;html=1;align=center;verticalAlign=middle;" vertex="1" parent="1">
          <mxGeometry x="500" y="130" width="200" height="30" as="geometry" />
        </mxCell>
        <mxCell id="CyuO8R-Sqe39hPokqnZD-68" style="edgeStyle=orthogonalEdgeStyle;rounded=0;orthogonalLoop=1;jettySize=auto;html=1;exitX=0.5;exitY=1;exitDx=0;exitDy=0;entryX=0.75;entryY=1;entryDx=0;entryDy=0;strokeWidth=3;startArrow=classic;startFill=1;" edge="1" parent="1" source="CyuO8R-Sqe39hPokqnZD-27" target="CyuO8R-Sqe39hPokqnZD-22">
          <mxGeometry relative="1" as="geometry">
            <Array as="points">
              <mxPoint x="600" y="310" />
              <mxPoint x="375" y="310" />
            </Array>
          </mxGeometry>
        </mxCell>
        <mxCell id="CyuO8R-Sqe39hPokqnZD-27" value="----BROWSER_INTERFACE---" style="rounded=0;whiteSpace=wrap;html=1;align=center;verticalAlign=middle;" vertex="1" parent="1">
          <mxGeometry x="490" y="190" width="220" height="30" as="geometry" />
        </mxCell>
        <mxCell id="CyuO8R-Sqe39hPokqnZD-55" style="edgeStyle=orthogonalEdgeStyle;rounded=0;orthogonalLoop=1;jettySize=auto;html=1;exitX=0.5;exitY=1;exitDx=0;exitDy=0;entryX=0.75;entryY=0;entryDx=0;entryDy=0;" edge="1" parent="1" source="CyuO8R-Sqe39hPokqnZD-29" target="CyuO8R-Sqe39hPokqnZD-26">
          <mxGeometry relative="1" as="geometry" />
        </mxCell>
        <mxCell id="CyuO8R-Sqe39hPokqnZD-29" value="USER INPUT" style="rounded=0;whiteSpace=wrap;html=1;align=center;verticalAlign=middle;" vertex="1" parent="1">
          <mxGeometry x="610" y="70" width="100" height="30" as="geometry" />
        </mxCell>
        <mxCell id="CyuO8R-Sqe39hPokqnZD-54" style="edgeStyle=orthogonalEdgeStyle;rounded=0;orthogonalLoop=1;jettySize=auto;html=1;exitX=0.5;exitY=1;exitDx=0;exitDy=0;entryX=0.25;entryY=0;entryDx=0;entryDy=0;" edge="1" parent="1" source="CyuO8R-Sqe39hPokqnZD-31" target="CyuO8R-Sqe39hPokqnZD-26">
          <mxGeometry relative="1" as="geometry" />
        </mxCell>
        <mxCell id="CyuO8R-Sqe39hPokqnZD-31" value="INIT" style="rounded=0;whiteSpace=wrap;html=1;align=center;verticalAlign=middle;" vertex="1" parent="1">
          <mxGeometry x="490" y="70" width="100" height="30" as="geometry" />
        </mxCell>
        <mxCell id="CyuO8R-Sqe39hPokqnZD-73" style="edgeStyle=orthogonalEdgeStyle;rounded=0;orthogonalLoop=1;jettySize=auto;html=1;exitX=0.75;exitY=1;exitDx=0;exitDy=0;entryX=0.75;entryY=0;entryDx=0;entryDy=0;" edge="1" parent="1" source="CyuO8R-Sqe39hPokqnZD-43" target="CyuO8R-Sqe39hPokqnZD-24">
          <mxGeometry relative="1" as="geometry">
            <Array as="points">
              <mxPoint x="370" y="100" />
            </Array>
          </mxGeometry>
        </mxCell>
        <mxCell id="CyuO8R-Sqe39hPokqnZD-43" value="HC_TIME_KEEPER" style="rounded=0;whiteSpace=wrap;html=1;align=center;verticalAlign=middle;" vertex="1" parent="1">
          <mxGeometry x="240" y="70" width="170" height="30" as="geometry" />
        </mxCell>
        <mxCell id="CyuO8R-Sqe39hPokqnZD-52" style="edgeStyle=orthogonalEdgeStyle;rounded=0;orthogonalLoop=1;jettySize=auto;html=1;exitX=0.5;exitY=1;exitDx=0;exitDy=0;entryX=0.5;entryY=0;entryDx=0;entryDy=0;startArrow=none;startFill=0;" edge="1" parent="1" source="CyuO8R-Sqe39hPokqnZD-45" target="CyuO8R-Sqe39hPokqnZD-47">
          <mxGeometry relative="1" as="geometry" />
        </mxCell>
        <mxCell id="CyuO8R-Sqe39hPokqnZD-45" value="HC_SHUTTER_CONTROL" style="rounded=0;whiteSpace=wrap;html=1;align=center;verticalAlign=middle;" vertex="1" parent="1">
          <mxGeometry x="50" y="190" width="160" height="30" as="geometry" />
        </mxCell>
        <mxCell id="CyuO8R-Sqe39hPokqnZD-46" value="HC_TFT_SCREEN_CONTROL" style="rounded=0;whiteSpace=wrap;html=1;align=center;verticalAlign=middle;" vertex="1" parent="1">
          <mxGeometry x="50" y="70" width="170" height="30" as="geometry" />
        </mxCell>
        <mxCell id="CyuO8R-Sqe39hPokqnZD-71" style="edgeStyle=orthogonalEdgeStyle;rounded=0;orthogonalLoop=1;jettySize=auto;html=1;exitX=0.5;exitY=1;exitDx=0;exitDy=0;entryX=0.25;entryY=0;entryDx=0;entryDy=0;strokeWidth=3;" edge="1" parent="1" source="CyuO8R-Sqe39hPokqnZD-47" target="CyuO8R-Sqe39hPokqnZD-5">
          <mxGeometry relative="1" as="geometry">
            <Array as="points">
              <mxPoint x="130" y="330" />
              <mxPoint x="220" y="330" />
            </Array>
          </mxGeometry>
        </mxCell>
        <mxCell id="CyuO8R-Sqe39hPokqnZD-47" value="HC_PIN_INTERFACE" style="rounded=0;whiteSpace=wrap;html=1;align=center;verticalAlign=middle;" vertex="1" parent="1">
          <mxGeometry x="40" y="250" width="180" height="30" as="geometry" />
        </mxCell>
        <mxCell id="CyuO8R-Sqe39hPokqnZD-56" style="edgeStyle=orthogonalEdgeStyle;rounded=0;orthogonalLoop=1;jettySize=auto;html=1;exitX=0.25;exitY=1;exitDx=0;exitDy=0;entryX=0.5;entryY=0;entryDx=0;entryDy=0;" edge="1" parent="1" source="CyuO8R-Sqe39hPokqnZD-48" target="CyuO8R-Sqe39hPokqnZD-45">
          <mxGeometry relative="1" as="geometry">
            <Array as="points">
              <mxPoint x="200" y="170" />
              <mxPoint x="130" y="170" />
            </Array>
          </mxGeometry>
        </mxCell>
        <mxCell id="CyuO8R-Sqe39hPokqnZD-58" style="edgeStyle=orthogonalEdgeStyle;rounded=0;orthogonalLoop=1;jettySize=auto;html=1;exitX=0.75;exitY=0;exitDx=0;exitDy=0;entryX=0.25;entryY=1;entryDx=0;entryDy=0;" edge="1" parent="1" source="CyuO8R-Sqe39hPokqnZD-48" target="CyuO8R-Sqe39hPokqnZD-43">
          <mxGeometry relative="1" as="geometry">
            <Array as="points">
              <mxPoint x="260" y="120" />
              <mxPoint x="283" y="120" />
              <mxPoint x="283" y="100" />
            </Array>
          </mxGeometry>
        </mxCell>
        <mxCell id="CyuO8R-Sqe39hPokqnZD-59" style="edgeStyle=orthogonalEdgeStyle;rounded=0;orthogonalLoop=1;jettySize=auto;html=1;exitX=0.25;exitY=0;exitDx=0;exitDy=0;entryX=0.5;entryY=1;entryDx=0;entryDy=0;" edge="1" parent="1" source="CyuO8R-Sqe39hPokqnZD-48" target="CyuO8R-Sqe39hPokqnZD-46">
          <mxGeometry relative="1" as="geometry">
            <Array as="points">
              <mxPoint x="200" y="120" />
              <mxPoint x="135" y="120" />
            </Array>
          </mxGeometry>
        </mxCell>
        <mxCell id="CyuO8R-Sqe39hPokqnZD-48" value="HC_MAIN" style="rounded=0;whiteSpace=wrap;html=1;align=center;verticalAlign=middle;" vertex="1" parent="1">
          <mxGeometry x="170" y="130" width="120" height="30" as="geometry" />
        </mxCell>
        <mxCell id="CyuO8R-Sqe39hPokqnZD-63" value="" style="ellipse;whiteSpace=wrap;html=1;align=center;aspect=fixed;fillColor=none;strokeColor=none;resizable=0;perimeter=centerPerimeter;rotatable=0;allowArrows=0;points=[];outlineConnect=1;" vertex="1" parent="1">
          <mxGeometry x="450" y="310" width="10" height="10" as="geometry" />
        </mxCell>
        <mxCell id="CyuO8R-Sqe39hPokqnZD-65" value="Shutters" style="rounded=0;whiteSpace=wrap;html=1;align=center;verticalAlign=middle;" vertex="1" parent="1">
          <mxGeometry x="40" y="460" width="140" height="60" as="geometry" />
        </mxCell>
      </root>
    </mxGraphModel>
  </diagram>
</mxfile>
